<svg xmlns="http://www.w3.org/2000/svg" xmlns:xlink="http://www.w3.org/1999/xlink" width="2000" zoomAndPan="magnify" viewBox="0 0 1500 1499.999933" height="2000" preserveAspectRatio="xMidYMid meet" version="1.2"><defs><clipPath id="1e4dcde3a0"><path d="M 27.941406 488 L 1471.691406 488 L 1471.691406 1011 L 27.941406 1011 Z M 27.941406 488 "/></clipPath></defs><g id="69f0c4d412"><g clip-rule="nonzero" clip-path="url(#1e4dcde3a0)"><path style=" stroke:none;fill-rule:nonzero;fill:#00c0c9;fill-opacity:1;" d="M 1454.386719 624.613281 C 1433.570312 620.664062 1412.757812 615.28125 1391.585938 613.847656 C 1355.699219 611.691406 1319.457031 612.410156 1283.570312 619.230469 C 1261.320312 623.535156 1239.074219 628.199219 1217.183594 635.019531 C 1189.191406 643.632812 1161.917969 654.039062 1135.363281 666.597656 C 1083.332031 691 1036.320312 723.296875 992.898438 760.617188 C 954.503906 793.632812 917.179688 828.082031 879.503906 861.8125 C 853.304688 884.78125 824.238281 902.722656 790.867188 914.207031 C 780.816406 917.796875 770.410156 920.308594 760.363281 923.179688 C 758.925781 923.179688 757.132812 923.535156 755.699219 923.894531 C 754.261719 923.894531 752.828125 924.253906 751.390625 924.613281 C 751.03125 924.613281 750.316406 924.613281 749.957031 924.613281 C 724.835938 928.5625 699.714844 929.636719 674.957031 922.101562 C 652.707031 915.640625 633.328125 904.875 617.898438 887.292969 C 599.957031 867.195312 590.984375 843.152344 587.753906 816.597656 C 584.523438 790.042969 588.832031 764.566406 600.3125 740.523438 C 613.234375 713.609375 632.96875 691.71875 656.296875 673.414062 C 696.488281 641.835938 742.0625 620.304688 789.070312 601.285156 C 805.578125 594.828125 822.804688 589.804688 840.027344 585.136719 C 855.457031 581.191406 870.890625 576.882812 886.679688 575.449219 C 907.851562 573.65625 929.023438 574.011719 950.195312 573.296875 C 951.632812 573.296875 952.707031 572.9375 954.144531 572.9375 C 943.378906 565.042969 932.253906 557.507812 920.769531 551.765625 C 902.828125 542.792969 884.527344 534.179688 865.867188 526.285156 C 852.945312 520.902344 839.667969 516.238281 826.390625 512.289062 C 811.320312 507.625 795.890625 503.320312 780.457031 499.730469 C 769.691406 497.21875 758.570312 495.425781 747.445312 493.988281 C 732.011719 491.835938 716.222656 488.605469 700.792969 488.246094 C 677.828125 487.890625 654.859375 489.324219 631.894531 490.042969 C 611.4375 490.402344 591.703125 493.628906 571.605469 497.9375 C 554.738281 501.882812 537.515625 505.472656 520.648438 509.777344 C 489.789062 517.316406 460.363281 528.796875 431.292969 541.359375 C 393.972656 557.148438 358.449219 576.527344 323.996094 598.058594 C 267.296875 633.941406 214.546875 675.210938 165.742188 721.144531 C 120.527344 763.128906 78.542969 808.34375 40.503906 857.148438 C 36.195312 862.890625 31.890625 868.632812 27.941406 874.375 C 31.53125 872.9375 33.683594 870.785156 36.195312 868.992188 C 69.210938 841.359375 101.867188 813.011719 135.957031 786.453125 C 176.148438 754.875 218.496094 725.449219 262.273438 698.175781 C 302.464844 673.058594 343.734375 650.089844 386.796875 629.996094 C 425.910156 611.691406 466.101562 595.1875 508.089844 585.496094 C 535.003906 579.039062 561.917969 572.21875 589.191406 568.273438 C 614.308594 564.683594 640.148438 565.042969 665.625 563.964844 C 667.777344 563.964844 670.289062 564.324219 672.445312 564.683594 C 672.800781 565.402344 672.800781 566.117188 673.160156 566.835938 C 671.726562 567.554688 670.648438 568.632812 669.214844 569.347656 C 649.117188 580.113281 628.304688 589.804688 608.925781 602.003906 C 568.734375 626.765625 534.644531 657.625 510.601562 699.253906 C 498.042969 720.785156 489.789062 743.75 486.558594 768.152344 C 483.328125 790.761719 483.6875 813.726562 487.992188 836.695312 C 492.300781 859.300781 498.757812 880.832031 509.164062 901.289062 C 524.953125 932.507812 547.921875 957.628906 577.707031 976.289062 C 606.773438 994.230469 638.710938 1004.996094 672.800781 1008.226562 C 700.433594 1010.738281 728.066406 1011.816406 755.339844 1005.714844 C 772.921875 1001.765625 790.507812 998.179688 807.730469 992.796875 C 832.851562 985.257812 856.175781 973.058594 878.785156 959.78125 C 915.386719 937.890625 944.453125 907.386719 973.878906 876.886719 C 1006.535156 842.792969 1038.832031 808.34375 1072.566406 774.972656 C 1105.578125 742.316406 1143.257812 715.761719 1183.808594 693.152344 C 1209.648438 678.800781 1235.84375 665.519531 1263.832031 656.191406 C 1281.058594 650.449219 1298.285156 645.066406 1315.507812 640.761719 C 1332.375 636.453125 1349.601562 633.582031 1366.464844 630.710938 C 1375.796875 629.277344 1385.484375 628.199219 1394.816406 627.839844 C 1410.964844 627.484375 1426.753906 627.125 1442.902344 627.839844 C 1452.230469 628.199219 1461.921875 629.636719 1471.25 630.710938 C 1465.867188 627.839844 1460.125 626.046875 1454.386719 624.613281 Z M 1454.386719 624.613281 "/></g></g></svg>