<svg xmlns="http://www.w3.org/2000/svg" xmlns:xlink="http://www.w3.org/1999/xlink" width="2000" zoomAndPan="magnify" viewBox="0 0 1500 1499.999933" height="2000" preserveAspectRatio="xMidYMid meet" version="1.2"><defs><clipPath id="7ca5e96bcb"><path d="M 297.457031 277.039062 L 1283.753906 277.039062 L 1283.753906 635 L 297.457031 635 Z M 297.457031 277.039062 "/></clipPath></defs><g id="390009cd37"><g style="fill:#ffffff;fill-opacity:1;"><g transform="translate(63.670458, 962.573599)"><path style="stroke:none" d="M 9.3125 -247.734375 C 9.3125 -266.691406 14.394531 -284.1875 24.5625 -300.21875 C 34.738281 -316.257812 48.53125 -329.191406 65.9375 -339.015625 C 83.351562 -348.835938 102.921875 -353.75 124.640625 -353.75 C 137.398438 -353.75 148.78125 -351.765625 158.78125 -347.796875 C 168.78125 -343.835938 177.828125 -339.1875 185.921875 -333.84375 C 194.023438 -328.5 201.523438 -323.84375 208.421875 -319.875 C 215.316406 -315.914062 221.867188 -313.9375 228.078125 -313.9375 C 241.179688 -313.9375 249.628906 -317.296875 253.421875 -324.015625 C 257.210938 -330.742188 259.109375 -339.796875 259.109375 -351.171875 L 271 -351.171875 C 272.726562 -337.035156 272.898438 -322.46875 271.515625 -307.46875 C 270.140625 -292.46875 266.347656 -278.585938 260.140625 -265.828125 C 253.941406 -253.078125 244.804688 -242.734375 232.734375 -234.796875 C 220.671875 -226.867188 204.984375 -222.90625 185.671875 -222.90625 C 172.910156 -222.90625 161.617188 -225.75 151.796875 -231.4375 C 141.972656 -237.125 133.09375 -244.191406 125.15625 -252.640625 C 117.226562 -261.085938 110.070312 -269.707031 103.6875 -278.5 C 97.3125 -287.289062 91.109375 -294.875 85.078125 -301.25 C 79.046875 -307.632812 72.835938 -311.515625 66.453125 -312.890625 C 60.078125 -314.273438 53.097656 -311.863281 45.515625 -305.65625 C 37.234375 -298.757812 35.9375 -290.222656 41.625 -280.046875 C 47.320312 -269.878906 59.304688 -259.535156 77.578125 -249.015625 C 95.847656 -238.503906 119.46875 -229.113281 148.4375 -220.84375 C 159.46875 -217.738281 172.484375 -213.34375 187.484375 -207.65625 C 202.484375 -201.96875 217.222656 -194.550781 231.703125 -185.40625 C 246.179688 -176.269531 258.25 -165.148438 267.90625 -152.046875 C 277.5625 -138.953125 282.390625 -123.4375 282.390625 -105.5 C 282.390625 -86.195312 277.21875 -68.269531 266.875 -51.71875 C 256.53125 -35.164062 242.5625 -21.800781 224.96875 -11.625 C 207.382812 -1.457031 187.390625 3.625 164.984375 3.625 C 152.222656 3.625 140.5 1.554688 129.8125 -2.578125 C 119.125 -6.722656 109.296875 -11.378906 100.328125 -16.546875 C 91.367188 -21.722656 83.09375 -26.378906 75.5 -30.515625 C 67.914062 -34.648438 60.851562 -36.71875 54.3125 -36.71875 C 41.550781 -36.71875 33.1875 -33.351562 29.21875 -26.625 C 25.257812 -19.90625 23.28125 -10.859375 23.28125 0.515625 L 11.890625 0.515625 C 9.828125 -13.617188 9.570312 -28.1875 11.125 -43.1875 C 12.675781 -58.1875 16.550781 -72.0625 22.75 -84.8125 C 28.957031 -97.570312 38.09375 -107.914062 50.15625 -115.84375 C 62.226562 -123.78125 77.75 -127.75 96.71875 -127.75 C 109.46875 -127.75 121.015625 -124.898438 131.359375 -119.203125 C 141.703125 -113.515625 151.097656 -106.359375 159.546875 -97.734375 C 167.992188 -89.117188 175.835938 -80.414062 183.078125 -71.625 C 190.328125 -62.832031 197.222656 -55.25 203.765625 -48.875 C 210.316406 -42.5 216.867188 -38.617188 223.421875 -37.234375 C 229.972656 -35.859375 236.867188 -38.273438 244.109375 -44.484375 C 252.390625 -51.722656 252.820312 -60.6875 245.40625 -71.375 C 237.988281 -82.0625 224.539062 -92.921875 205.0625 -103.953125 C 185.582031 -114.984375 161.191406 -124.8125 131.890625 -133.4375 C 108.441406 -140.332031 87.40625 -148.257812 68.78125 -157.21875 C 50.164062 -166.1875 35.597656 -177.820312 25.078125 -192.125 C 14.566406 -206.4375 9.3125 -224.972656 9.3125 -247.734375 Z M 9.3125 -247.734375 "/></g></g><g style="fill:#ffffff;fill-opacity:1;"><g transform="translate(410.191113, 962.573599)"><path style="stroke:none" d="M 188.25 -283.421875 C 217.90625 -283.421875 242.644531 -277.300781 262.46875 -265.0625 C 282.300781 -252.820312 296.4375 -236.1875 304.875 -215.15625 C 313.320312 -194.125 315.304688 -170.160156 310.828125 -143.265625 C 307.378906 -122.578125 305.828125 -104.988281 306.171875 -90.5 C 306.515625 -76.019531 311.6875 -64.300781 321.6875 -55.34375 C 328.582031 -49.476562 336.082031 -47.320312 344.1875 -48.875 C 352.289062 -50.425781 360.476562 -55.335938 368.75 -63.609375 L 376.515625 -55.34375 C 369.273438 -45.6875 359.960938 -36.71875 348.578125 -28.4375 C 337.203125 -20.164062 324.875 -13.269531 311.59375 -7.75 C 298.320312 -2.238281 284.878906 0.945312 271.265625 1.8125 C 257.648438 2.675781 244.894531 0.523438 233 -4.640625 C 221.101562 -9.816406 211.1875 -18.785156 203.25 -31.546875 C 201.875 -21.890625 196.960938 -13.875 188.515625 -7.5 C 180.066406 -1.125 164.984375 2.0625 143.265625 2.0625 C 97.398438 2.0625 63.609375 -5.003906 41.890625 -19.140625 C 20.171875 -33.273438 9.3125 -53.617188 9.3125 -80.171875 C 9.3125 -134.984375 57.238281 -162.390625 153.09375 -162.390625 C 161.019531 -162.390625 168.6875 -162.21875 176.09375 -161.875 C 183.507812 -161.53125 190.492188 -161.015625 197.046875 -160.328125 C 201.179688 -191.703125 202.300781 -215.578125 200.40625 -231.953125 C 198.507812 -248.335938 194.195312 -259.113281 187.46875 -264.28125 C 180.75 -269.457031 171.875 -270.492188 160.84375 -267.390625 C 153.945312 -265.316406 148.945312 -260.660156 145.84375 -253.421875 C 142.738281 -246.179688 140.148438 -237.734375 138.078125 -228.078125 C 136.015625 -218.421875 133.257812 -208.9375 129.8125 -199.625 C 126.363281 -190.320312 121.101562 -182.566406 114.03125 -176.359375 C 106.96875 -170.148438 96.710938 -167.046875 83.265625 -167.046875 C 68.441406 -167.046875 56.375 -170.492188 47.0625 -177.390625 C 37.75 -184.285156 31.367188 -195.921875 27.921875 -212.296875 C 24.472656 -228.679688 24.300781 -251.179688 27.40625 -279.796875 L 40.859375 -279.796875 C 40.859375 -270.140625 42.492188 -262.125 45.765625 -255.75 C 49.046875 -249.375 54.992188 -246.1875 63.609375 -246.1875 C 71.890625 -246.1875 80.253906 -248.082031 88.703125 -251.875 C 97.148438 -255.664062 106.195312 -259.972656 115.84375 -264.796875 C 125.5 -269.628906 136.273438 -273.941406 148.171875 -277.734375 C 160.066406 -281.523438 173.425781 -283.421875 188.25 -283.421875 Z M 189.8125 -90.515625 C 190.15625 -99.472656 190.84375 -108.609375 191.875 -117.921875 C 192.90625 -127.234375 194.113281 -136.710938 195.5 -146.359375 L 195.5 -148.4375 C 182.050781 -150.15625 169.378906 -150.84375 157.484375 -150.5 C 145.585938 -150.15625 136.019531 -148.085938 128.78125 -144.296875 C 118.78125 -139.472656 113.085938 -130.335938 111.703125 -116.890625 C 110.328125 -103.441406 113.257812 -87.753906 120.5 -69.828125 C 129.8125 -46.378906 139.8125 -30.601562 150.5 -22.5 C 161.1875 -14.394531 171.53125 -12.753906 181.53125 -17.578125 C 185.664062 -19.648438 188.25 -24.476562 189.28125 -32.0625 C 190.320312 -39.644531 190.671875 -48.695312 190.328125 -59.21875 C 189.984375 -69.738281 189.8125 -80.171875 189.8125 -90.515625 Z M 189.8125 -90.515625 "/></g></g><g style="fill:#ffffff;fill-opacity:1;"><g transform="translate(821.361085, 962.573599)"><path style="stroke:none" d="M 155.671875 -15.515625 C 170.492188 -16.546875 181.867188 -22.578125 189.796875 -33.609375 C 197.734375 -44.648438 202.734375 -58.960938 204.796875 -76.546875 C 206.867188 -94.128906 206.441406 -113.09375 203.515625 -133.4375 C 200.585938 -153.78125 195.5 -173.773438 188.25 -193.421875 C 181.007812 -213.078125 172.046875 -230.578125 161.359375 -245.921875 C 150.671875 -261.265625 138.601562 -272.554688 125.15625 -279.796875 L 275.140625 -279.796875 C 282.035156 -268.421875 285.914062 -254.195312 286.78125 -237.125 C 287.644531 -220.0625 286.695312 -201.875 283.9375 -182.5625 C 281.175781 -163.257812 277.726562 -144.640625 273.59375 -126.703125 C 269.457031 -108.773438 265.492188 -93.609375 261.703125 -81.203125 C 254.109375 -54.992188 244.796875 -28.703125 233.765625 -2.328125 C 222.734375 24.046875 210.148438 48.007812 196.015625 69.5625 C 181.878906 91.113281 166.363281 108.4375 149.46875 121.53125 C 132.570312 134.632812 114.46875 141.1875 95.15625 141.1875 C 82.40625 141.1875 71.804688 139.117188 63.359375 134.984375 C 54.910156 130.847656 47.753906 126.109375 41.890625 120.765625 C 36.023438 115.421875 30.503906 110.675781 25.328125 106.53125 C 20.160156 102.394531 14.304688 100.328125 7.765625 100.328125 C -3.960938 100.328125 -11.460938 103.601562 -14.734375 110.15625 C -18.015625 116.707031 -19.65625 125.675781 -19.65625 137.0625 L -31.03125 137.0625 C -33.101562 122.914062 -33.273438 108.429688 -31.546875 93.609375 C -29.828125 78.785156 -26.035156 64.992188 -20.171875 52.234375 C -14.304688 39.472656 -5.859375 29.128906 5.171875 21.203125 C 16.203125 13.273438 30.164062 9.3125 47.0625 9.3125 C 60.164062 9.3125 71.113281 11.378906 79.90625 15.515625 C 88.695312 19.648438 96.195312 24.820312 102.40625 31.03125 C 108.613281 37.238281 114.128906 43.441406 118.953125 49.640625 C 123.773438 55.847656 128.769531 61.019531 133.9375 65.15625 C 139.113281 69.300781 145.328125 71.375 152.578125 71.375 C 171.535156 71.375 186.015625 61.804688 196.015625 42.671875 C 206.015625 23.535156 211.703125 -1.203125 213.078125 -31.546875 C 202.390625 -21.203125 190.40625 -13.015625 177.125 -6.984375 C 163.851562 -0.953125 149.632812 2.0625 134.46875 2.0625 C 104.46875 2.0625 79.554688 -4.054688 59.734375 -16.296875 C 39.910156 -28.535156 25.945312 -45.253906 17.84375 -66.453125 C 9.738281 -87.660156 7.753906 -111.710938 11.890625 -138.609375 C 14.992188 -159.296875 16.457031 -176.960938 16.28125 -191.609375 C 16.113281 -206.265625 11.03125 -217.90625 1.03125 -226.53125 C -5.863281 -232.394531 -13.445312 -234.460938 -21.71875 -232.734375 C -30 -231.015625 -38.101562 -226.1875 -46.03125 -218.25 L -54.3125 -226.53125 C -45.34375 -237.90625 -33.703125 -248.421875 -19.390625 -258.078125 C -5.085938 -267.734375 10.25 -274.882812 26.625 -279.53125 C 43.007812 -284.1875 58.957031 -285.050781 74.46875 -282.125 C 89.988281 -279.195312 103.265625 -270.835938 114.296875 -257.046875 C 122.578125 -246.703125 127.921875 -234.976562 130.328125 -221.875 C 132.742188 -208.769531 133.429688 -194.890625 132.390625 -180.234375 C 131.359375 -165.585938 129.640625 -150.675781 127.234375 -135.5 C 123.085938 -108.957031 121.101562 -87.582031 121.28125 -71.375 C 121.457031 -55.164062 123.09375 -43.007812 126.1875 -34.90625 C 129.289062 -26.800781 133.425781 -21.457031 138.59375 -18.875 C 143.769531 -16.289062 149.460938 -15.171875 155.671875 -15.515625 Z M 155.671875 -15.515625 "/></g></g><g style="fill:#ffffff;fill-opacity:1;"><g transform="translate(1156.503484, 962.573599)"><path style="stroke:none" d="M 249.796875 -191.875 L 249.796875 -179.46875 L 156.1875 -179.46875 C 157.914062 -173.601562 158.78125 -167.738281 158.78125 -161.875 L 158.78125 0 L 45.515625 0 L 45.515625 -179.46875 L 9.3125 -179.46875 L 9.3125 -191.875 L 45.515625 -191.875 L 45.515625 -242.046875 C 45.515625 -271.691406 50.082031 -294.617188 59.21875 -310.828125 C 68.351562 -327.035156 80.332031 -338.414062 95.15625 -344.96875 C 109.988281 -351.519531 125.851562 -354.796875 142.75 -354.796875 C 155.5 -354.796875 166.097656 -352.722656 174.546875 -348.578125 C 182.992188 -344.441406 190.234375 -339.613281 196.265625 -334.09375 C 202.304688 -328.582031 207.910156 -323.757812 213.078125 -319.625 C 218.253906 -315.488281 223.945312 -313.421875 230.15625 -313.421875 C 241.875 -313.421875 249.367188 -316.78125 252.640625 -323.5 C 255.921875 -330.226562 257.5625 -339.28125 257.5625 -350.65625 L 269.453125 -350.65625 C 271.523438 -336.519531 271.695312 -321.953125 269.96875 -306.953125 C 268.25 -291.953125 264.367188 -278.070312 258.328125 -265.3125 C 252.296875 -252.5625 243.765625 -242.21875 232.734375 -234.28125 C 221.703125 -226.351562 207.738281 -222.390625 190.84375 -222.390625 C 177.738281 -222.390625 166.789062 -224.457031 158 -228.59375 C 149.207031 -232.726562 141.707031 -237.984375 135.5 -244.359375 C 129.289062 -250.742188 123.773438 -257.039062 118.953125 -263.25 C 114.128906 -269.457031 109.21875 -274.628906 104.21875 -278.765625 C 99.21875 -282.898438 93.097656 -284.96875 85.859375 -284.96875 C 75.171875 -284.96875 68.101562 -281.953125 64.65625 -275.921875 C 61.207031 -269.890625 60 -263.425781 61.03125 -256.53125 C 62.0625 -249.632812 66.195312 -244.03125 73.4375 -239.71875 C 80.675781 -235.40625 89.207031 -231.351562 99.03125 -227.5625 C 108.863281 -223.769531 118.519531 -219.113281 128 -213.59375 C 137.488281 -208.082031 144.988281 -200.84375 150.5 -191.875 Z M 249.796875 -191.875 "/></g></g><g clip-rule="nonzero" clip-path="url(#7ca5e96bcb)"><path style=" stroke:none;fill-rule:nonzero;fill:#00c0c9;fill-opacity:1;" d="M 1271.925781 370.808594 C 1257.707031 368.113281 1243.488281 364.433594 1229.027344 363.453125 C 1204.511719 361.984375 1179.75 362.472656 1155.234375 367.132812 C 1140.035156 370.074219 1124.835938 373.257812 1109.882812 377.917969 C 1090.761719 383.800781 1072.128906 390.910156 1053.988281 399.492188 C 1018.441406 416.160156 986.328125 438.222656 956.664062 463.71875 C 930.433594 486.273438 904.9375 509.808594 879.195312 532.851562 C 861.300781 548.542969 841.445312 560.800781 818.644531 568.644531 C 811.78125 571.09375 804.671875 572.8125 797.808594 574.773438 C 796.828125 574.773438 795.601562 575.019531 794.621094 575.261719 C 793.640625 575.261719 792.660156 575.507812 791.679688 575.753906 C 791.433594 575.753906 790.941406 575.753906 790.699219 575.753906 C 773.539062 578.449219 756.378906 579.183594 739.460938 574.039062 C 724.261719 569.625 711.023438 562.269531 700.484375 550.257812 C 688.226562 536.53125 682.097656 520.105469 679.890625 501.964844 C 677.683594 483.820312 680.625 466.417969 688.46875 449.992188 C 697.296875 431.605469 710.777344 416.652344 726.714844 404.148438 C 754.171875 382.574219 785.304688 367.867188 817.417969 354.875 C 828.695312 350.460938 840.464844 347.027344 852.230469 343.839844 C 862.773438 341.144531 873.3125 338.203125 884.101562 337.222656 C 898.5625 335.996094 913.027344 336.242188 927.492188 335.75 C 928.472656 335.75 929.207031 335.507812 930.1875 335.507812 C 922.832031 330.113281 915.234375 324.964844 907.390625 321.042969 C 895.132812 314.914062 882.628906 309.03125 869.882812 303.636719 C 861.054688 299.960938 851.984375 296.773438 842.914062 294.078125 C 832.617188 290.890625 822.078125 287.949219 811.535156 285.496094 C 804.179688 283.78125 796.582031 282.554688 788.980469 281.574219 C 778.441406 280.101562 767.652344 277.894531 757.113281 277.652344 C 741.421875 277.40625 725.734375 278.386719 710.042969 278.878906 C 696.070312 279.121094 682.585938 281.328125 668.859375 284.269531 C 657.335938 286.96875 645.570312 289.417969 634.046875 292.359375 C 612.964844 297.507812 592.863281 305.351562 573.003906 313.933594 C 547.507812 324.71875 523.238281 337.957031 499.707031 352.667969 C 460.972656 377.183594 424.933594 405.375 391.59375 436.753906 C 360.707031 465.4375 332.023438 496.324219 306.039062 529.664062 C 303.09375 533.585938 300.152344 537.511719 297.457031 541.433594 C 299.910156 540.453125 301.378906 538.980469 303.09375 537.753906 C 325.648438 518.878906 347.957031 499.511719 371.246094 481.371094 C 398.703125 459.796875 427.632812 439.695312 457.539062 421.0625 C 484.996094 403.902344 513.1875 388.214844 542.605469 374.484375 C 569.328125 361.984375 596.785156 350.707031 625.46875 344.085938 C 643.851562 339.675781 662.238281 335.015625 680.871094 332.320312 C 698.03125 329.867188 715.683594 330.113281 733.085938 329.378906 C 734.558594 329.378906 736.273438 329.625 737.746094 329.867188 C 737.992188 330.359375 737.992188 330.847656 738.234375 331.339844 C 737.253906 331.828125 736.519531 332.566406 735.539062 333.054688 C 721.8125 340.410156 707.59375 347.027344 694.355469 355.363281 C 666.898438 372.277344 643.609375 393.363281 627.183594 421.800781 C 618.601562 436.507812 612.964844 452.199219 610.757812 468.867188 C 608.550781 484.3125 608.796875 500.003906 611.738281 515.691406 C 614.679688 531.136719 619.09375 545.84375 626.203125 559.820312 C 636.988281 581.148438 652.679688 598.308594 673.027344 611.054688 C 692.882812 623.3125 714.703125 630.667969 737.992188 632.875 C 756.867188 634.589844 775.742188 635.324219 794.375 631.15625 C 806.386719 628.460938 818.398438 626.007812 830.167969 622.332031 C 847.328125 617.183594 863.261719 608.847656 878.707031 599.777344 C 903.710938 584.824219 923.570312 563.984375 943.671875 543.148438 C 965.980469 519.859375 988.042969 496.324219 1011.085938 473.527344 C 1033.640625 451.21875 1059.382812 433.078125 1087.082031 417.632812 C 1104.734375 407.824219 1122.628906 398.753906 1141.753906 392.382812 C 1153.519531 388.457031 1165.285156 384.78125 1177.054688 381.839844 C 1188.574219 378.898438 1200.34375 376.9375 1211.863281 374.976562 C 1218.238281 373.996094 1224.859375 373.257812 1231.230469 373.015625 C 1242.261719 372.769531 1253.050781 372.523438 1264.082031 373.015625 C 1270.457031 373.257812 1277.074219 374.242188 1283.449219 374.976562 C 1279.773438 373.015625 1275.847656 371.789062 1271.925781 370.808594 Z M 1271.925781 370.808594 "/></g></g></svg>